<?xml version="1.0" encoding="utf-8" ?><svg xmlns="http://www.w3.org/2000/svg" xmlns:xlink="http://www.w3.org/1999/xlink" width="469" height="469" viewBox="0 0 469 469"><path fill="#3E4653" transform="matrix(0.916016 0 0 0.916016 0 -0.00012207)" d="M232.449 52.7541C244.958 52.5451 257.571 52.8904 270.091 52.7338C285.089 53.1912 283.919 51.6405 286.132 67.9611C287.096 75.0775 287.621 82.0712 288.624 89.0957C303.676 90.8837 335.058 103.438 346.699 113.22C355.467 107.206 366.942 99.0825 376.215 93.9985C378.944 92.502 380.504 92.9121 382.643 95.0711C386.918 99.3859 417.47 127.879 416.113 131.465C410.335 142.006 402.679 151.995 396.866 162.485C408.297 182.475 414.877 198.021 420.141 221.01C424.181 221.481 452.78 225.342 454.716 226.656C458.554 229.261 457.734 234.106 457.736 238.096L457.736 267.088C457.721 285.427 454.601 281.623 438.893 284.201C432.718 285.017 426.273 286.249 420.141 286.881C415.952 309.557 407.274 327.185 395.045 346.369C402.272 355.829 410.321 365.785 417.23 375.47C418.621 377.421 413.022 382.321 411.62 383.728L389.34 406.265C386.774 408.882 380.747 416.498 377.298 414.531C367.363 408.865 357.378 400.598 347.587 394.846C326.211 408.43 313.908 412.995 289.587 419.172C288.622 426.931 287.68 451.16 280.838 454.489C279.044 454.693 275.839 454.524 273.917 454.509L244.332 454.494C238.003 454.494 228.326 456.512 226.87 448.882C225.532 441.873 222.203 425.383 222.647 419.172C201.38 412.679 183.612 407.747 164.752 394.044C160.171 397.165 137.074 412.875 133.16 413.784C129.414 414.653 124.92 408.107 122.643 405.83L106.074 389.179C92.6621 375.562 92.2753 379.388 103.347 363.23L115.845 344.898C106.181 334.69 93.435 299.498 91.6912 286.881C85.9162 284.943 75.4536 284.415 69.1208 283.312C57.0539 281.216 54.2484 284.425 54.2278 269.692L54.2192 240.815C54.2293 224.287 56.2608 226.507 71.4311 223.806L91.6912 220.093C98.7182 197.293 100.417 183.904 115.845 162.485C112.92 157.939 96.2814 135.839 95.3932 132.767C94.2259 128.729 99.7675 125.257 102.162 122.889L118.609 106.772C122.054 103.355 130.418 91.847 135.513 94.6678C144.762 99.7878 157.127 107.171 165.769 113.22C177.834 103.095 207.144 91.5441 222.647 89.0957C223.312 83.9557 225.738 58.2806 227.474 55.4873C228.583 53.7029 230.531 53.1715 232.449 52.7541ZM259.377 379.334C328.574 377.278 382.988 319.493 380.886 250.298C378.783 181.103 320.961 126.727 251.767 128.876C182.64 131.023 128.327 188.779 130.428 257.908C132.528 327.037 190.247 381.388 259.377 379.334Z"/><path fill="#1E3A8A" transform="matrix(0.916016 0 0 0.916016 0 -0.00012207)" d="M201.801 184.517C224.571 184.157 248.464 184.515 271.341 184.514L295.936 184.512C302.983 184.512 315.79 181.993 315.744 191.754C315.717 197.381 315.644 203.049 315.739 208.681C315.978 220.081 311.844 218.81 302.125 218.729L288.625 218.722C281.07 218.672 275.173 217.406 273.954 226.963L238.066 226.963C237.096 218.205 231.989 218.662 224.357 218.688C218.49 218.708 198.179 221.513 196.469 214.621C195.845 212.102 196.052 193.648 196.349 190.381C196.667 186.888 198.277 185.254 201.801 184.517Z"/><path fill="#1E3A8A" transform="matrix(0.916016 0 0 0.916016 0 -0.00012207)" d="M238.066 246.906C249.865 246.902 262.208 247.108 273.954 246.906L273.954 344.898L238.066 344.898C238.209 341.549 238.075 337.336 238.072 333.909L238.066 246.906Z"/></svg>